<svg width="187" height="30" viewBox="0 0 187 30" fill="none" xmlns="http://www.w3.org/2000/svg">
<g clip-path="url(#clip0_2001_92)">
<mask id="mask0_2001_92" style="mask-type:luminance" maskUnits="userSpaceOnUse" x="0" y="0" width="187" height="30">
<path d="M187 0H0V30H187V0Z" fill="white"/>
</mask>
<g mask="url(#mask0_2001_92)">
<path d="M119.405 0C119.72 0 120 0.293578 120 0.623853V3.37615C120 3.70642 119.72 4 119.405 4H99.5955C99.2802 4 99 3.70642 99 3.37615V0.623853C99 0.293578 99.2802 0 99.5955 0H119.405Z" fill="#2F80ED"/>
<path d="M59.8971 24.255C59.7079 24.0691 59.3637 24.0353 59.1228 24.255C57.8151 25.2857 56.2321 25.9954 54.3565 25.9954C50.3645 25.9954 47.3878 22.7512 47.3878 18.9324C47.3878 15.0799 50.3473 11.8187 54.3221 11.8187C56.06 11.8187 57.8151 12.4946 59.1228 13.6267C59.3637 13.8633 59.6906 13.8633 59.8971 13.6267L61.7899 11.7005C62.0308 11.4639 62.0308 11.0922 61.7555 10.8387C59.639 8.98003 57.3677 8 54.2189 8C48.0072 8 43 12.9171 43 19.0338C43 25.1336 48.0072 30 54.2361 30C57.0064 30 59.6906 29.0538 61.8071 27.043C62.0308 26.8233 62.0824 26.4347 61.8415 26.2151L59.8971 24.255Z" fill="#2F80ED"/>
<path d="M90.3906 8H87.4151C87.0566 8 86.8057 8.27826 86.8057 8.5913V16.9217H76.2302V8.5913C76.2302 8.27826 75.9792 8 75.6208 8H72.6094C72.2868 8 72 8.27826 72 8.5913V29.4087C72 29.7217 72.2868 30 72.6094 30H75.6208C75.9792 30 76.2302 29.7217 76.2302 29.4087V20.7304H86.8057V29.4087C86.8057 29.7217 87.0566 30 87.4151 30H90.3906C90.7132 30 91 29.7217 91 29.4087V8.5913C91 8.27826 90.7132 8 90.3906 8Z" fill="#2F80ED"/>
<path d="M110.267 8.34268C110.18 8.15421 110.04 8 109.727 8H109.413C109.134 8 108.977 8.15421 108.873 8.34268L99.0633 29.1947C98.8717 29.6059 99.133 30 99.6035 30H102.339C102.844 30 103.123 29.6916 103.245 29.3832L109.43 15.7788H109.517L115.755 29.3832C115.982 29.8115 116.191 30 116.661 30H119.397C119.867 30 120.128 29.5888 119.937 29.1947L110.267 8.34268Z" fill="#2F80ED"/>
<path d="M135.978 8H128.591C128.243 8 128 8.27826 128 8.5913V29.4087C128 29.7217 128.243 30 128.591 30H131.476C131.789 30 132.067 29.7217 132.067 29.4087V22.0174H135.995C139.837 22.0174 143 18.8348 143 14.9391C143.017 11.1478 139.837 8 135.978 8ZM135.717 18.1913H132.067V11.8609H135.717C137.473 11.8609 138.95 13.1826 138.95 14.9043C138.95 16.7652 137.473 18.1913 135.717 18.1913Z" fill="#2F80ED"/>
<path d="M155.423 8H152.576C152.271 8 152 8.27826 152 8.5913V29.4087C152 29.7217 152.271 30 152.576 30H155.423C155.728 30 155.999 29.7217 155.999 29.4087V8.5913C156.016 8.27826 155.728 8 155.423 8Z" fill="#2F80ED"/>
<path d="M186.36 8H183.41C183.054 8 182.805 8.27563 182.805 8.58572V21.4543H182.77L172.195 10.5668L170.097 8.39622C169.848 8.13782 169.493 8 169.138 8H168.604C168.267 8 168 8.25841 168 8.58572V29.2065C168 29.5338 168.267 29.7922 168.604 29.7922H171.537C171.892 29.7922 172.141 29.5166 172.141 29.2065V15.8211H172.177L172.212 15.8555L185.116 29.5855C185.116 29.5855 185.507 29.9989 185.862 29.9989C186.378 29.9989 187 30.0506 187 29.4305V8.58572C186.964 8.25841 186.698 8 186.36 8Z" fill="#2F80ED"/>
<path d="M3.423 8H0.576004C0.271004 8 0 8.27826 0 8.5913V29.4087C0 29.7217 0.271004 30 0.576004 30H3.423C3.728 30 3.99899 29.7217 3.99899 29.4087V8.5913C4.01599 8.27826 3.728 8 3.423 8Z" fill="#2F80ED"/>
<path d="M34.36 8H31.41C31.054 8 30.805 8.27563 30.805 8.58572V21.4543H30.77L20.195 10.5668L18.097 8.39622C17.848 8.13782 17.493 8 17.138 8H16.604C16.267 8 16 8.25841 16 8.58572V29.2065C16 29.5338 16.267 29.7922 16.604 29.7922H19.537C19.892 29.7922 20.141 29.5166 20.141 29.2065V15.8211H20.177L20.212 15.8555L33.116 29.5855C33.116 29.5855 33.507 29.9989 33.862 29.9989C34.378 29.9989 35 30.0506 35 29.4305V8.58572C34.964 8.25841 34.698 8 34.36 8Z" fill="#2F80ED"/>
</g>
</g>
<defs>
<clipPath id="clip0_2001_92">
<rect width="187" height="30" fill="white"/>
</clipPath>
</defs>
</svg>
