<svg width="718.000000" height="114.000000" viewBox="0 0 718 114" fill="none" xmlns="http://www.w3.org/2000/svg" xmlns:xlink="http://www.w3.org/1999/xlink">
	<desc>
			Created with Pixso.
	</desc>
	<defs>
		<clipPath id="clip2001_56">
			<rect id="INCHAPIN 2" width="718.000000" height="114.000000" fill="white" fill-opacity="0"/>
		</clipPath>
	</defs>
	<rect id="INCHAPIN 2" width="718.000000" height="114.000000" fill="#FFFFFF" fill-opacity="0"/>
	<g clip-path="url(#clip2001_56)">
		<path id="Vector" d="M204.45 114C223.76 114 236.85 104.74 246.02 92.19L234.4 85.74C228.18 95.16 216.89 101.77 204.45 101.77C180.56 101.77 162.39 83.1 162.39 57C162.39 30.73 180.56 12.22 204.45 12.22C216.89 12.22 228.18 19 234.4 28.25L245.85 21.8C237.18 9.41 223.76 0 204.45 0C173.03 0 148.32 23.13 148.32 57C148.32 90.86 173.03 114 204.45 114Z" fill="#000000" fill-opacity="1.000000" fill-rule="nonzero"/>
		<path id="Vector" d="M354.31 112.01L354.31 1.81L340.73 1.81L340.73 49.23L276.91 49.23L276.91 1.81L263.32 1.81L263.32 112.01L276.91 112.01L276.91 61.45L340.73 61.45L340.73 112.01L354.31 112.01Z" fill="#000000" fill-opacity="1.000000" fill-rule="nonzero"/>
		<path id="Vector" d="M473.27 112.01L429.25 1.81L412.39 1.81L368.53 112.01L384.08 112.01L393.74 87.56L448.07 87.56L457.72 112.01L473.27 112.01ZM443.97 75.33L397.66 75.33L420.9 16.02L443.97 75.33Z" fill="#000000" fill-opacity="1.000000" fill-rule="nonzero"/>
		<path id="Vector" d="M502.04 112.01L502.04 68.23L532.32 68.23C553.92 68.23 566.52 53.03 566.52 35.02C566.52 17.01 554.25 1.81 532.32 1.81L488.46 1.81L488.46 112.01L502.04 112.01ZM530.68 56L502.04 56L502.04 14.04L530.68 14.04C543.61 14.04 552.45 22.63 552.45 35.02C552.45 47.41 543.61 56 530.68 56Z" fill="#000000" fill-opacity="1.000000" fill-rule="nonzero"/>
		<path id="Vector" d="M13.58 112.01L13.58 1.81L0 1.81L0 112.01L13.58 112.01Z" fill="#000000" fill-opacity="1.000000" fill-rule="nonzero"/>
		<path id="Vector" d="M130.48 112.01L130.48 1.81L116.9 1.81L116.9 87.89L54.06 1.81L40.15 1.81L40.15 112.01L53.73 112.01L53.73 24.12L117.39 112.01L130.48 112.01Z" fill="#000000" fill-opacity="1.000000" fill-rule="nonzero"/>
		<path id="Vector" d="M599.04 112.01L599.04 1.81L585.46 1.81L585.46 112.01L599.04 112.01Z" fill="#000000" fill-opacity="1.000000" fill-rule="nonzero"/>
		<path id="Vector" d="M716.95 112.01L716.95 1.81L703.39 1.81L703.39 87.89L640.63 1.81L626.74 1.81L626.74 112.01L640.31 112.01L640.31 24.12L703.88 112.01L716.95 112.01Z" fill="#000000" fill-opacity="1.000000" fill-rule="nonzero"/>
	</g>
</svg>
