<svg width="200" height="200" viewBox="0 0 200 200" fill="none" xmlns="http://www.w3.org/2000/svg">
<circle cx="100" cy="100" r="100" fill="#2F80ED"/>
<path d="M122.611 66C123.346 66 124 66.6239 124 67.3257V73.1743C124 73.8761 123.346 74.5 122.611 74.5H76.3895C75.6539 74.5 75 73.8761 75 73.1743V67.3257C75 66.6239 75.6539 66 76.3895 66H122.611Z" fill="white"/>
<path d="M101.289 84.5551C101.086 84.1248 100.76 83.7727 100.029 83.7727H99.2967C98.6463 83.7727 98.2804 84.1248 98.0364 84.5551L75.1478 132.161C74.7006 133.1 75.3104 134 76.4081 134H82.7909C83.9699 134 84.6204 133.296 84.9049 132.592L99.3374 101.532H99.5407L114.095 132.592C114.624 133.57 115.111 134 116.209 134H122.592C123.69 134 124.299 133.061 123.852 132.161L101.289 84.5551Z" fill="white"/>
</svg>
