<svg width="14.001953" height="13.982422" viewBox="0 0 14.002 13.9824" fill="none" xmlns="http://www.w3.org/2000/svg" xmlns:xlink="http://www.w3.org/1999/xlink">
	<desc>
			Created with Pixso.
	</desc>
	<defs/>
	<path id="phone" d="M13.48 0.66C13.64 0.69 13.75 0.77 13.86 0.88C13.94 1.02 14 1.15 14 1.29C14 3.59 13.42 5.72 12.27 7.69C11.13 9.6 9.62 11.13 7.71 12.25C5.74 13.4 3.61 13.98 1.31 13.98C1.15 13.98 1.01 13.95 0.9 13.84C0.76 13.76 0.68 13.62 0.68 13.46L0.02 10.61C-0.03 10.48 0 10.34 0.08 10.18C0.13 10.04 0.24 9.93 0.41 9.88L3.47 8.56C3.58 8.51 3.72 8.51 3.85 8.54C3.99 8.59 4.13 8.65 4.24 8.75L5.58 10.4C6.64 9.9 7.6 9.25 8.42 8.4C9.24 7.58 9.92 6.62 10.41 5.56L8.77 4.22C8.66 4.11 8.58 4 8.56 3.86C8.5 3.72 8.53 3.59 8.58 3.45L9.9 0.39C9.95 0.25 10.03 0.14 10.2 0.06C10.33 0 10.47 -0.02 10.63 0L13.48 0.66Z" fill="#000000" fill-opacity="1.000000" fill-rule="nonzero"/>
</svg>
